<svg width="301" height="278" viewBox="0 0 301 278" fill="none" xmlns="http://www.w3.org/2000/svg">
<path fill-rule="evenodd" clip-rule="evenodd" d="M115 372C217.725 372 301 288.725 301 186C301 83.275 217.725 0 115 0C12.275 0 -71 83.275 -71 186C-71 288.725 12.275 372 115 372ZM114.505 365.074C213.132 365.074 293.085 285.122 293.085 186.495C293.085 87.8678 213.132 7.91489 114.505 7.91489C15.8784 7.91489 -64.0745 87.8678 -64.0745 186.495C-64.0745 285.122 15.8784 365.074 114.505 365.074Z" fill="#195967"/>
<path fill-rule="evenodd" clip-rule="evenodd" d="M113 356C205.784 356 281 280.784 281 188C281 95.2162 205.784 20 113 20C20.2162 20 -55 95.2162 -55 188C-55 280.784 20.2162 356 113 356ZM112.553 349.745C201.636 349.745 273.851 277.529 273.851 188.447C273.851 99.3644 201.636 27.1489 112.553 27.1489C23.4708 27.1489 -48.7447 99.3644 -48.7447 188.447C-48.7447 277.529 23.4708 349.745 112.553 349.745Z" fill="#195967"/>
<path fill-rule="evenodd" clip-rule="evenodd" d="M107 351C193.709 351 264 280.709 264 194C264 107.291 193.709 37 107 37C20.2913 37 -50 107.291 -50 194C-50 280.709 20.2913 351 107 351ZM106.582 345.154C189.832 345.154 257.319 277.667 257.319 194.418C257.319 111.168 189.832 43.6808 106.582 43.6808C23.3329 43.6808 -44.1543 111.168 -44.1543 194.418C-44.1543 277.667 23.3329 345.154 106.582 345.154Z" fill="#195967"/>
</svg>
