<svg width="505" height="454" viewBox="0 0 505 454" fill="none" xmlns="http://www.w3.org/2000/svg">
<path d="M28.3186 0.857849C24.5405 0.857849 21.2412 1.62992 18.3691 3.01964" stroke="white" stroke-miterlimit="10"/>
<path d="M5.75199 18.1865C-2.11185 37.9857 1.37559 69.143 4.89722 80.5181C16.9152 119.499 43.5668 152.578 63.7564 187.424C85.9119 225.667 104.665 267.702 115.555 310.697C125.163 348.666 130.274 407.24 156.345 438.157C180.671 467.016 220.247 447.285 247.753 435.241C286.645 418.186 321.588 400.532 364.702 395.505C372.429 394.613 447.084 393.051 483.822 393.36" stroke="white" stroke-miterlimit="10" stroke-dasharray="11.78 11.78"/>
<path d="M493.875 393.498C500.217 393.669 504.03 393.944 504.03 394.355" stroke="white" stroke-miterlimit="10"/>
</svg>
