<?xml version="1.0" encoding="UTF-8" standalone="no"?>
<!-- Created with Inkscape (http://www.inkscape.org/) -->

<svg
   xmlns:dc="http://purl.org/dc/elements/1.1/"
   xmlns:cc="http://creativecommons.org/ns#"
   xmlns:rdf="http://www.w3.org/1999/02/22-rdf-syntax-ns#"
   xmlns:svg="http://www.w3.org/2000/svg"
   xmlns="http://www.w3.org/2000/svg"
   xmlns:sodipodi="http://sodipodi.sourceforge.net/DTD/sodipodi-0.dtd"
   xmlns:inkscape="http://www.inkscape.org/namespaces/inkscape"
   width="79.418152mm"
   height="73.334923mm"
   viewBox="0 0 79.418152 73.334923"
   version="1.1"
   id="svg3975"
   inkscape:version="0.92.4 (5da689c313, 2019-01-14)"
   sodipodi:docname="drawing.svg">
  <defs
     id="defs3969" />
  <sodipodi:namedview
     id="base"
     pagecolor="#ffffff"
     bordercolor="#666666"
     borderopacity="1.0"
     inkscape:pageopacity="0.0"
     inkscape:pageshadow="2"
     inkscape:zoom="1.4"
     inkscape:cx="187.16074"
     inkscape:cy="159.14649"
     inkscape:document-units="mm"
     inkscape:current-layer="layer1"
     showgrid="false"
     inkscape:window-width="1920"
     inkscape:window-height="1017"
     inkscape:window-x="1912"
     inkscape:window-y="-8"
     inkscape:window-maximized="1" />
  <metadata
     id="metadata3972">
    <rdf:RDF>
      <cc:Work
         rdf:about="">
        <dc:format>image/svg+xml</dc:format>
        <dc:type
           rdf:resource="http://purl.org/dc/dcmitype/StillImage" />
        <dc:title></dc:title>
      </cc:Work>
    </rdf:RDF>
  </metadata>
  <g
     inkscape:label="Layer 1"
     inkscape:groupmode="layer"
     id="layer1"
     transform="translate(8.0697925,5.464086)"
     style="display:inline">
    <path
       inkscape:connector-curvature="0"
       id="path4110"
       d="m 53.891118,67.295531 c 4.52582,-6.9606 6.87381,-16.647271 6.06277,-25.011949 C 59.017078,32.621821 55.084718,24.194736 48.388218,17.498236 41.678788,10.788805 33.267218,6.8696258 23.555438,5.9279638 12.906508,4.8954368 1.2452985,8.7682778 -6.4506645,15.893383 l -1.619128,1.499031 v -0.95523 c 0,-1.121352 0.801435,-1.945399 4.461837,-4.587708 5.835341,-4.2123162 13.6581025,-6.9989502 20.8720135,-7.4350532 7.90278,-0.477748 14.53704,0.83093 21.3651,4.214491 12.0039,5.9483802 20.37203,17.3337492 22.51129,30.6280202 0.51609,3.207197 0.51609,9.570601 0,12.777798 -0.74879,4.653333 -2.43877,9.596851 -4.6164,13.503908 -1.12737,2.022689 -1.29891,2.206842 -2.12958,2.286058 -0.88903,0.08478 -0.89705,0.07635 -0.50335,-0.529167 z m 3.65575,0.437754 c 0,-0.07565 0.286,-0.590601 0.63555,-1.144329 2.287,-3.622842 4.46833,-9.165749 5.4953,-13.963915 0.53956,-2.520926 0.61464,-3.584234 0.60485,-8.566708 -0.0126,-6.40791 -0.36744,-8.711812 -2.12509,-13.797429 -2.21084,-6.396905 -5.26691,-11.221786 -10.28852,-16.243405 -5.02162,-5.0216192 -9.8465,-8.0776862 -16.24341,-10.2885322 -5.08562,-1.75765 -7.38952,-2.112497 -13.79743,-2.125086 -4.98247,-0.0098 -6.04578,0.06529 -8.56671,0.60485 -7.2457995,1.550844 -14.16220047,4.925006 -19.3251185,9.4277472 l -2.006082,1.749571 v -1.04655 c 0,-0.986924 0.11682,-1.140643 2.050516,-2.6980222 8.815123,-7.09962 19.3760445,-10.41328404 30.9764745,-9.71938204 8.77283,0.524764 17.60187,3.98678004 24.65217,9.66653304 9.54701,7.6911152 15.6386,19.3642552 16.35499,31.3406312 0.49565,8.28615 -0.9743,15.775515 -4.46417,22.744891 -1.85603,3.70654 -2.22715,4.196683 -3.17758,4.196683 -0.42666,0 -0.77574,-0.0619 -0.77574,-0.137548 z m 5.59857,-0.04325 c 0.054,-0.11884 0.77955,-1.595681 1.61234,-3.281868 3.64233,-7.374729 5.21622,-15.494887 4.66226,-24.053999 -1.51865,-23.464265 -20.42349,-42.3691062 -43.88775,-43.8877552 -8.50191,-0.550258 -16.6386585,1.007661 -23.9792725,4.591245 -2.84915,1.390915 -8.119052,4.706621 -8.816766,5.547316 -0.553202,0.666562 -0.806042,0.478776 -0.806042,-0.598636 0,-0.936868 0.12114,-1.09748 1.666209,-2.208974 9.338191,-6.717737 20.1353315,-9.826853 31.8697215,-9.177121 24.39651,1.350832 44.44924,21.4035632 45.80007,45.8000692 0.48387,8.738854 -1.17657,17.224412 -4.80197,24.540105 -1.36592,2.756291 -1.38476,2.778784 -2.39686,2.861908 -0.56106,0.04608 -0.97594,-0.01344 -0.92194,-0.132292 z"
       style="fill:#185866;stroke-width:0.26458332" />
  </g>
</svg>
