<svg width="402" height="388" viewBox="0 0 402 388" fill="none" xmlns="http://www.w3.org/2000/svg">
<path d="M380.559 179.005C389.421 248.703 356.584 317.667 296.897 354.698C295.68 355.462 294.07 355.076 293.324 353.857C292.579 352.637 292.946 351.029 294.165 350.284C352.121 314.311 384.031 247.351 375.425 179.657C363.266 84.0207 275.573 16.0982 179.954 28.2552C84.3342 40.4121 16.4277 128.117 28.5868 223.754C33.7455 264.329 53.0816 301.997 83.0475 329.819C84.1039 330.789 84.1613 332.439 83.1912 333.495C82.2212 334.552 80.572 334.609 79.5156 333.639C48.6623 304.977 28.7474 266.202 23.4363 224.428C10.915 125.942 80.8332 35.6391 179.301 23.1201C277.745 10.5659 368.038 80.5192 380.559 179.005Z" fill="#252F47"/>
</svg>
